<svg width="20" height="17" viewBox="0 0 20 17" fill="none" xmlns="http://www.w3.org/2000/svg">
<g clip-path="url(#clip0_14_9)">
<path d="M13.9719 7.5C13.9719 7.1075 13.8225 6.71469 13.5234 6.41375L8.05781 0.948125C7.78437 0.649563 7.39062 0.5 6.97187 0.5C6.60625 0.5 6.21562 0.649563 5.9125 0.948438L0.448434 6.4125C0.149465 6.71562 -3.8147e-05 7.10625 -3.8147e-05 7.47188C-3.8147e-05 7.86438 0.149493 8.25844 0.448399 8.55937L5.91402 14.025C6.21481 14.3238 6.60746 14.4734 6.99996 14.4734C7.39246 14.4734 7.78527 14.324 8.0859 14.025L13.5515 8.55937C13.85 8.28437 13.9719 7.89375 13.9719 7.5ZM3 8.25C2.58593 8.25 2.27812 7.91406 2.27812 7.52812C2.27812 7.14219 2.61406 6.80625 3 6.80625C3.38593 6.80625 3.75 7.0875 3.75 7.5C3.75 7.9125 3.41562 8.25 3 8.25ZM7 12.25C6.58593 12.25 6.27812 11.9141 6.27812 11.5281C6.27812 11.1422 6.61406 10.8062 7 10.8062C7.38593 10.8062 7.72187 11.1422 7.72187 11.5281C7.72187 11.9141 7.41562 12.25 7 12.25ZM7 8.25C6.58593 8.25 6.27812 7.91406 6.27812 7.52812C6.27812 7.14219 6.61406 6.80625 7 6.80625C7.38593 6.80625 7.75 7.0875 7.75 7.5C7.75 7.9125 7.41562 8.25 7 8.25ZM7 4.25C6.58593 4.25 6.27812 3.91406 6.27812 3.52813C6.27812 3.14219 6.61406 2.80625 7 2.80625C7.38593 2.80625 7.72187 3.14219 7.72187 3.52813C7.72187 3.91406 7.41562 4.25 7 4.25ZM11 8.25C10.5859 8.25 10.2781 7.91406 10.2781 7.52812C10.2781 7.14219 10.6141 6.80625 11 6.80625C11.3859 6.80625 11.7219 7.14219 11.7219 7.52812C11.7219 7.91406 11.4156 8.25 11 8.25ZM18.4719 6.5H14.7625C14.9006 6.82094 14.9689 7.16406 14.9689 7.50719C14.9689 8.15406 14.7231 8.80031 14.2304 9.29281L9.97418 13.5491V14.9981C10 15.8281 10.6719 16.5 11.5 16.5H18.4719C19.3 16.5 19.9437 15.8281 19.9437 15.0281V8C19.9719 7.17188 19.3281 6.5 18.4719 6.5ZM14.9719 12.25C14.5578 12.25 14.25 11.9141 14.25 11.5281C14.25 11.1422 14.5859 10.8062 14.9719 10.8062C15.3578 10.8062 15.6937 11.1422 15.6937 11.5281C15.6937 11.9141 15.4125 12.25 14.9719 12.25Z" fill="#6117C2"/>
</g>
<defs>
<clipPath id="clip0_14_9">
<rect width="20" height="16" fill="white" transform="translate(0 0.5)"/>
</clipPath>
</defs>
</svg>
